<svg xmlns="http://www.w3.org/2000/svg" viewBox="0 0 358.91 56.12"><defs><style>.cls-1{fill:#231f20;}.cls-2{fill:#00accd;}</style></defs><title>Asset 1</title><g id="Layer_2" data-name="Layer 2"><g id="Layer_1-2" data-name="Layer 1"><polygon class="cls-1" points="244.31 44.09 221.45 44.09 221.45 36.32 213.9 36.32 213.9 44.09 191.03 44.09 191.03 48.98 244.31 48.98 244.31 44.09"/><path class="cls-1" d="M217.68,33.57c13.49,0,24.43-6.27,24.43-14s-10.94-14-24.43-14-24.42,6.27-24.42,14,10.94,14,24.42,14m0-23.58c9,0,16.22,4.29,16.22,9.58s-7.26,9.57-16.22,9.57-16.21-4.29-16.21-9.57S208.73,10,217.68,10"/><path class="cls-1" d="M90.7,37.75h4.22V50.22h7.38V37.75h4.09c2.14,14.15,18,12.6,18,12.6V46.23c-9.63-.5-11-5.23-11.21-8.48h5.28s4.29.16,4.67-3.65h0V14.29H102.3V11.12h22.06V6.88H102.3V3.94H94.92V6.88H72.75v4.24H94.92v3.17H74.11V34.06h0c0,.33,0,3.66,5.18,3.69H84c-.23,3.27-1.62,7.93-11.2,8.43V50.3s15.8,1.34,18-12.55m11.6-19.81h13.46v6.3H102.3Zm0,9.89h13.46V34.1H102.3ZM81.51,17.94h13.4v6.3H81.51Zm0,9.89h13.4V34.1H81.51Z"/><path class="cls-1" d="M182.35,46H171.13V38.56h7.31c4.1,0,3.9-3.64,3.9-3.64V18.53H171.13V11.11h11.22V6.87H133.49v4.24h11.22v7.42H133.5V34.92s-.2,3.61,3.9,3.64h7.31V46H133.49v4.24h48.86Zm-18.61,0H152.1V34.91H140.88V22.18H152.1V11.11h11.64V22.18H175V34.91H163.74Z"/><path class="cls-2" d="M20.72,55.71S20.93,45,19.54,40.94s-3-10.46-13.45-17.2C2.44,21.38,1.23,21.59.86,21.81S-.09,23,0,27.33-.2,43.59,4.89,48.85s9.05,6.51,15.83,6.86"/><path class="cls-2" d="M29,27.31A44.9,44.9,0,0,1,50.85,9.17C52,8.83,52.6,8.44,52.7,7.49s-1.4-2.92-5.73-5C41-.32,29,0,29,0S17-.32,11,2.51c-4.34,2.06-5.86,4.05-5.75,5s.67,1.34,1.85,1.68A44.85,44.85,0,0,1,29,27.31"/><path class="cls-2" d="M29,56.12c2.16,0,4.14-.09,5.95-.22,0,0,.22-9.68-.38-13.28-.66-4-2-10.33-5.57-15.2-3.51,4.87-4.9,11.2-5.56,15.2-.57,3.6-.36,13.28-.36,13.28,1.8.13,3.79.22,5.92.22"/><path class="cls-2" d="M37.25,55.71S37,45,38.44,40.94s3-10.46,13.45-17.2c3.65-2.36,4.86-2.15,5.23-1.93s1,1.19.84,5.52.22,16.26-4.88,21.52S44,55.36,37.25,55.71"/><path class="cls-2" d="M3.62,12.4a1.66,1.66,0,0,1-1.23-1.68A1.74,1.74,0,0,1,4.13,9a1.8,1.8,0,0,1,.69.15s7.86,3.56,12.81,10.09l-.13.19a41.58,41.58,0,0,0-13.88-7"/><path class="cls-2" d="M1.86,16.43A1.77,1.77,0,0,1,.54,14.8,1.74,1.74,0,0,1,2.22,13a2.05,2.05,0,0,1,.78.16s7.92,3.21,12.87,9.27l-.15.17A38.31,38.31,0,0,0,1.86,16.43"/><path class="cls-2" d="M1.52,20.82a1.7,1.7,0,0,1,.36-3.34,2.21,2.21,0,0,1,.67.12s7.63,3.1,11.6,7.92l-.13.21a32.5,32.5,0,0,0-12.5-4.91"/><path class="cls-2" d="M54.35,12.4a1.67,1.67,0,0,0,1.25-1.68A1.75,1.75,0,0,0,53.84,9a2,2,0,0,0-.7.15s-7.86,3.56-12.8,10.09l.13.19a41.68,41.68,0,0,1,13.88-7"/><path class="cls-2" d="M56.12,16.43A1.75,1.75,0,0,0,55.75,13a2.13,2.13,0,0,0-.78.16s-7.91,3.21-12.87,9.27l.14.17a38.32,38.32,0,0,1,13.88-6.15"/><path class="cls-2" d="M56.45,20.82a1.67,1.67,0,0,0,1.27-1.56,1.65,1.65,0,0,0-1.6-1.78,2.18,2.18,0,0,0-.69.12s-7.63,3.1-11.61,7.92l.13.21a32.44,32.44,0,0,1,12.5-4.91"/><polygon class="cls-1" points="301.88 44.09 279.01 44.09 271.47 44.09 248.6 44.09 248.6 48.98 301.88 48.98 301.88 44.09"/><rect class="cls-1" x="271.57" y="3.68" width="7.14" height="9.57"/><path class="cls-1" d="M256.39,10.81v4.26h27.19s-2,10.32-32.51,17.61l1.67,4.56s21-4.1,30.84-11.39,9.13-15,5.33-15Z"/><path class="cls-1" d="M282.71,24.88s5.72,6.21,16.52,8.36l-2.64,4.36s-10.07-1.1-20.21-9.52Z"/><path class="cls-1" d="M307.78,8.73v4.42h20.58v9.36H307.73v4.18H327.4S325.27,36.86,304.65,44l2.16,3.53S335.18,39,335.18,25.13V11.69s.11-2.91-2.73-2.91Z"/><rect class="cls-1" x="344.64" y="8.23" width="6.68" height="43.9"/><rect class="cls-1" x="347.98" y="23.12" width="10.94" height="4.86"/></g></g></svg>