<svg id="Capa_1" enable-background="new 0 0 512 512" height="512" viewBox="0 0 512 512" width="512" xmlns="http://www.w3.org/2000/svg" xmlns:xlink="http://www.w3.org/1999/xlink"><linearGradient id="SVGID_1_" gradientUnits="userSpaceOnUse" x1="68.572" x2="395.005" y1="430.558" y2="41.53"><stop offset="0" stop-color="#d2deff" stop-opacity="0"/><stop offset=".6852" stop-color="#d2deff"/></linearGradient><path d="m16.074 302.88c18.727 64.003 72.707 194.564 163.922 182.845 91.486-11.755 55.758-129.725 139.508-145.894 36.867-7.118 61.857 56.689 98.806 54.704 47.588-2.557 71.81-49.663 85.108-89.264 28.197-83.968-14.029-226.352-112.858-251.011-86.244-21.519-96.332 83.855-171.322 53.248-42.149-17.203-37.938-68.576-89.272-78.942-155.299-31.36-138.811 189.15-113.892 274.314z" fill="url(#SVGID_1_)"/><g fill="#6583fe" opacity=".2"><path d="m109.624 397.417c-2.298.755-3.853 2.891-3.853 5.31v15.794c0 3.093 2.508 5.601 5.601 5.601h90.482c3.093 0 5.601-2.508 5.601-5.601v-14.869c0-2.897-2.21-5.335-5.097-5.576-12.413-1.035-21.981-3.723-28.713-8.064l-.089-.058c-4.659-3.013-6.568-8.879-4.574-14.057l32.072-83.316h106.857l23.089 63.114c4.067 10.168 6.101 18.303 6.101 24.404 0 6.443-2.716 10.931-8.134 13.473-4.669 2.188-12.098 3.687-22.286 4.493-2.913.23-5.168 2.659-5.168 5.581v14.875c0 3.093 2.508 5.601 5.601 5.601h143.357c3.093 0 5.601-2.508 5.601-5.601v-15.429c0-2.518-1.68-4.717-4.106-5.389-4.13-1.144-8.354-3.625-12.672-7.436-5.767-5.084-10.851-13.219-15.252-24.404l-120.068-309.306c-.836-2.155-2.91-3.574-5.221-3.574h-31.611c-2.308 0-4.38 1.416-5.218 3.567l-112.429 288.468c-11.564 29.998-24.856 47.464-39.871 52.399zm146.251-247.255 41.061 111.984h-84.168z"/><path d="m76.597 90.952c2.761 0 5-2.239 5-5s-2.239-5-5-5h-8.408v-22.969h1.732c2.761 0 5-2.239 5-5s-2.239-5-5-5h-13.464c-2.761 0-5 2.239-5 5s2.239 5 5 5h1.732v22.968h-2.259c-2.761 0-5 2.239-5 5s2.239 5 5 5h2.259v88.643h-2.259c-2.761 0-5 2.239-5 5s2.239 5 5 5h2.259v88.643h-2.259c-2.761 0-5 2.239-5 5s2.239 5 5 5h2.259v88.643h-2.259c-2.761 0-5 2.239-5 5s2.239 5 5 5h2.259v33.859h-1.732c-2.761 0-5 2.239-5 5s2.239 5 5 5h13.464c2.761 0 5-2.239 5-5s-2.239-5-5-5h-1.732v-33.859h8.408c2.761 0 5-2.239 5-5s-2.239-5-5-5h-8.408v-88.643h8.408c2.761 0 5-2.239 5-5s-2.239-5-5-5h-8.408v-88.643h8.408c2.761 0 5-2.239 5-5s-2.239-5-5-5h-8.408v-88.642z"/><path d="m172.263 150.495c0-2.761-2.239-5-5-5h-66.667c-2.761 0-5 2.239-5 5s2.239 5 5 5h66.667c2.762 0 5-2.239 5-5z"/><path d="m456.07 455.553c-2.762 0-5 2.239-5 5v1.732h-30.807v-5.308c0-2.761-2.238-5-5-5s-5 2.239-5 5v5.308h-57.171v-5.308c0-2.761-2.238-5-5-5s-5 2.239-5 5v5.308h-57.172v-5.308c0-2.761-2.238-5-5-5s-5 2.239-5 5v5.308h-57.171v-5.308c0-2.761-2.239-5-5-5s-5 2.239-5 5v5.308h-57.171v-5.308c0-2.761-2.239-5-5-5s-5 2.239-5 5v5.308h-30.807v-1.732c0-2.761-2.239-5-5-5s-5 2.239-5 5v13.464c0 2.761 2.239 5 5 5s5-2.239 5-5v-1.732h30.807v1.732c0 2.761 2.239 5 5 5s5-2.239 5-5v-1.732h57.171v1.732c0 2.761 2.239 5 5 5s5-2.239 5-5v-1.732h57.171v1.732c0 2.761 2.238 5 5 5s5-2.239 5-5v-1.732h57.172v1.732c0 2.761 2.238 5 5 5s5-2.239 5-5v-1.732h57.171v1.732c0 2.761 2.238 5 5 5s5-2.239 5-5v-1.732h30.807v1.732c0 2.761 2.238 5 5 5s5-2.239 5-5v-13.464c0-2.761-2.238-5-5-5z"/></g><path d="m439.292 370.267c-5.767-5.084-10.851-13.219-15.252-24.404l-120.066-309.306c-.836-2.154-2.91-3.574-5.221-3.574h-31.611c-2.308 0-4.38 1.416-5.218 3.567l-112.429 288.468c-11.564 29.997-24.856 47.464-39.871 52.399-2.298.755-3.853 2.891-3.853 5.31v15.794c0 3.093 2.508 5.601 5.601 5.601h90.482c3.093 0 5.601-2.508 5.601-5.601v-14.869c0-2.897-2.21-5.335-5.097-5.576-12.413-1.035-21.981-3.723-28.713-8.064l-.089-.058c-4.659-3.013-6.568-8.879-4.574-14.057l32.072-83.316h106.857l23.089 63.114c4.067 10.168 6.101 18.303 6.101 24.404 0 6.442-2.716 10.931-8.134 13.473-4.669 2.188-12.098 3.687-22.286 4.493-2.913.23-5.168 2.659-5.168 5.581v14.876c0 3.093 2.508 5.601 5.601 5.601h143.357c3.093 0 5.601-2.508 5.601-5.601v-15.429c0-2.518-1.68-4.717-4.107-5.389-4.132-1.145-8.355-3.626-12.673-7.437zm-226.524-128.12 43.107-111.984 41.061 111.984z" fill="#ff5ba8"/><g fill="#2626bc"><path d="m255.915 125.162c-.014 0-.027 0-.041 0-2.066 0-3.922 1.272-4.666 3.204l-43.106 111.984c-.592 1.538-.389 3.268.544 4.626s2.475 2.17 4.122 2.17h84.168c1.634 0 3.164-.798 4.1-2.137.935-1.339 1.157-3.05.595-4.584l-41.062-111.984c-.716-1.956-2.571-3.262-4.654-3.279zm-35.865 111.984 35.711-92.771 34.016 92.771z"/><path d="m108.062 372.667c-4.36 1.434-7.29 5.477-7.29 10.06v15.794c0 5.845 4.755 10.601 10.601 10.601h18.627c2.761 0 5-2.239 5-5s-2.239-5-5-5h-18.628c-.331 0-.601-.27-.601-.601v-15.794c0-.257.163-.478.414-.56 16.672-5.48 30.73-23.586 42.968-55.333l112.43-288.469c.089-.229.313-.382.559-.382h31.611c.246 0 .471.154.56.384l15.327 39.483c1 2.575 3.896 3.853 6.471 2.852 2.574-1 3.851-3.896 2.852-6.471l-15.327-39.482c-1.569-4.047-5.541-6.766-9.882-6.766h-31.611c-4.402 0-8.279 2.65-9.877 6.751l-112.436 288.486c-10.944 28.388-23.314 45.025-36.768 49.447z"/><path d="m453.298 372.884c-3.37-.933-6.969-3.075-10.699-6.368-5.141-4.533-9.819-12.097-13.897-22.463l-92.519-238.338c-.999-2.574-3.895-3.851-6.471-2.852-2.574.999-3.851 3.896-2.852 6.471l92.526 238.359c4.738 12.043 10.168 20.654 16.597 26.322 4.874 4.303 9.803 7.165 14.646 8.506.264.073.441.302.441.57v15.43c0 .331-.27.601-.601.601h-143.357c-.331 0-.601-.27-.601-.601v-14.875c0-.31.247-.572.563-.597 10.888-.861 18.743-2.48 24.017-4.951 7.203-3.38 11.01-9.604 11.01-18 0-6.79-2.104-15.357-6.43-26.19l-23.066-63.044c-.721-1.971-2.597-3.282-4.695-3.282h-106.858c-2.068 0-3.923 1.273-4.666 3.204l-32.071 83.316c-2.828 7.345-.083 15.778 6.531 20.056l.089.058c7.502 4.837 17.645 7.73 31.007 8.845.282.023.512.29.512.593v14.869c0 .331-.27.601-.601.601h-37.853c-2.761 0-5 2.239-5 5s2.239 5 5 5h37.854c5.845 0 10.601-4.755 10.601-10.601v-14.869c0-5.468-4.252-10.105-9.681-10.559-11.525-.961-20.414-3.412-26.419-7.283l-.083-.054c-2.657-1.719-3.76-5.109-2.624-8.063l30.838-80.113h99.929l21.891 59.831c.017.047.034.093.053.139 3.811 9.53 5.743 17.116 5.743 22.547 0 4.481-1.621 7.24-5.255 8.945-4.106 1.924-11.024 3.282-20.561 4.036-5.48.434-9.773 5.075-9.773 10.566v14.875c0 5.845 4.756 10.601 10.601 10.601h143.356c5.845 0 10.601-4.755 10.601-10.601v-15.43c-.001-4.741-3.196-8.939-7.773-10.207z"/><path d="m76.597 70.952c2.761 0 5-2.239 5-5s-2.239-5-5-5h-8.408v-22.969h1.732c2.761 0 5-2.239 5-5s-2.239-5-5-5h-13.464c-2.761 0-5 2.239-5 5s2.239 5 5 5h1.732v22.968h-2.259c-2.761 0-5 2.239-5 5s2.239 5 5 5h2.259v88.643h-2.259c-2.761 0-5 2.239-5 5s2.239 5 5 5h2.259v88.643h-2.259c-2.761 0-5 2.239-5 5s2.239 5 5 5h2.259v88.643h-2.259c-2.761 0-5 2.239-5 5s2.239 5 5 5h2.259v33.859h-1.732c-2.761 0-5 2.239-5 5s2.239 5 5 5h13.464c2.761 0 5-2.239 5-5s-2.239-5-5-5h-1.732v-33.859h8.408c2.761 0 5-2.239 5-5s-2.239-5-5-5h-8.408v-88.643h8.408c2.761 0 5-2.239 5-5s-2.239-5-5-5h-8.408v-88.643h8.408c2.761 0 5-2.239 5-5s-2.239-5-5-5h-8.408v-88.642z"/><path d="m100.597 96.833h16.667c2.761 0 5-2.239 5-5s-2.239-5-5-5h-16.667c-2.761 0-5 2.239-5 5s2.238 5 5 5z"/><path d="m100.597 116.164h66.667c2.761 0 5-2.239 5-5s-2.239-5-5-5h-66.667c-2.761 0-5 2.239-5 5s2.238 5 5 5z"/><path d="m172.264 130.495c0-2.761-2.239-5-5-5h-66.667c-2.761 0-5 2.239-5 5s2.239 5 5 5h66.667c2.761 0 5-2.239 5-5z"/><path d="m456.07 435.553c-2.762 0-5 2.239-5 5v1.732h-30.807v-5.308c0-2.761-2.238-5-5-5s-5 2.239-5 5v5.308h-57.172v-5.308c0-2.761-2.238-5-5-5s-5 2.239-5 5v5.308h-57.171v-5.308c0-2.761-2.238-5-5-5s-5 2.239-5 5v5.308h-57.17v-5.308c0-2.761-2.239-5-5-5s-5 2.239-5 5v5.308h-57.171v-5.308c0-2.761-2.239-5-5-5s-5 2.239-5 5v5.308h-30.807v-1.732c0-2.761-2.239-5-5-5s-5 2.239-5 5v13.464c0 2.761 2.239 5 5 5s5-2.239 5-5v-1.732h30.807v1.732c0 2.761 2.239 5 5 5s5-2.239 5-5v-1.732h57.171v1.732c0 2.761 2.239 5 5 5s5-2.239 5-5v-1.732h57.171v1.732c0 2.761 2.238 5 5 5s5-2.239 5-5v-1.732h57.171v1.732c0 2.761 2.238 5 5 5s5-2.239 5-5v-1.732h57.172v1.732c0 2.761 2.238 5 5 5s5-2.239 5-5v-1.732h30.807v1.732c0 2.761 2.238 5 5 5s5-2.239 5-5v-13.464c-.001-2.761-2.239-5-5.001-5z"/></g><path d="m196.264 59.983c-2.761 0-5-2.239-5-5 0-3.309-2.691-6-6-6-2.761 0-5-2.239-5-5s2.239-5 5-5c3.309 0 6-2.691 6-6 0-2.761 2.239-5 5-5s5 2.239 5 5c0 3.309 2.691 6 6 6 2.761 0 5 2.239 5 5s-2.239 5-5 5c-3.309 0-6 2.691-6 6 0 2.762-2.239 5-5 5z" fill="#01eca5"/><path d="m281.254 363.338c-2.762 0-5-2.239-5-5 0-3.309-2.691-6-6-6-2.762 0-5-2.239-5-5s2.238-5 5-5c3.309 0 6-2.691 6-6 0-2.761 2.238-5 5-5s5 2.239 5 5c0 3.309 2.691 6 6 6 2.762 0 5 2.239 5 5s-2.238 5-5 5c-3.309 0-6 2.691-6 6 0 2.761-2.238 5-5 5z" fill="#ff7eb8"/><path d="m415.264 140.577c-2.762 0-5-2.239-5-5 0-3.309-2.691-6-6-6-2.762 0-5-2.239-5-5s2.238-5 5-5c3.309 0 6-2.692 6-6 0-2.761 2.238-5 5-5s5 2.239 5 5c0 3.309 2.691 6 6 6 2.762 0 5 2.239 5 5s-2.238 5-5 5c-3.309 0-6 2.691-6 6 0 2.761-2.239 5-5 5z" fill="#ff7eb8"/><path d="m437.264 235.971c-1.279 0-2.56-.488-3.535-1.464-1.953-1.953-1.953-5.119 0-7.071l10-10c1.951-1.952 5.119-1.952 7.07 0 1.953 1.953 1.953 5.119 0 7.071l-10 10c-.976.976-2.256 1.464-3.535 1.464z" fill="#6583fe"/><path d="m141.578 184.156c-1.28 0-2.559-.488-3.536-1.464-1.953-1.953-1.953-5.119 0-7.071l10-10c1.953-1.952 5.118-1.952 7.071 0 1.953 1.953 1.953 5.119 0 7.071l-10 10c-.976.976-2.255 1.464-3.535 1.464z" fill="#6583fe"/></svg>