<svg id="Capa_1" enable-background="new 0 0 512 512" height="512" viewBox="0 0 512 512" width="512" xmlns="http://www.w3.org/2000/svg" xmlns:xlink="http://www.w3.org/1999/xlink"><linearGradient id="SVGID_1_" gradientUnits="userSpaceOnUse" x1="0" x2="512" y1="256" y2="256"><stop offset="0" stop-color="#ffdbed" stop-opacity="0"/><stop offset="1" stop-color="#ffdbed"/></linearGradient><path d="m451.798 43.963c-160.556-97.869-410.51-8.611-439.594 61.949-38.908 94.394 26.578 110.528 38.743 187.874 9.761 62.061-51.182 121.495-16.394 176.282 37.883 59.663 163.465 44.681 211.198 16.447 87.376-51.683 43.309-112.012 84.684-187.299 39.407-71.707 116.244-42.625 160.961-99.99 42.5-54.521 14.31-122.402-39.598-155.263z" fill="url(#SVGID_1_)"/><path d="m437 210.178c-2.762 0-5-2.239-5-5 0-3.309-2.691-6-6-6-2.762 0-5-2.239-5-5s2.238-5 5-5c3.309 0 6-2.691 6-6 0-2.761 2.238-5 5-5s5 2.239 5 5c0 3.309 2.691 6 6 6 2.762 0 5 2.239 5 5s-2.238 5-5 5c-3.309 0-6 2.691-6 6 0 2.761-2.238 5-5 5z" fill="#ff7eb8"/><path d="m74 170.721c-2.762 0-5-2.239-5-5 0-3.309-2.691-6-6-6-2.762 0-5-2.239-5-5s2.238-5 5-5c3.309 0 6-2.691 6-6 0-2.761 2.238-5 5-5s5 2.239 5 5c0 3.309 2.691 6 6 6 2.762 0 5 2.239 5 5s-2.238 5-5 5c-3.309 0-6 2.691-6 6 0 2.761-2.238 5-5 5z" fill="#6583fe"/><path d="m59 106.5c-1.279 0-2.56-.488-3.535-1.464-1.953-1.953-1.953-5.119 0-7.071l10-10c1.951-1.952 5.119-1.952 7.07 0 1.953 1.953 1.953 5.119 0 7.071l-10 10c-.975.976-2.256 1.464-3.535 1.464z" fill="#01eca5"/><path d="m437 394.055c-2.762 0-5-2.239-5-5 0-3.309-2.691-6-6-6-2.762 0-5-2.239-5-5s2.238-5 5-5c3.309 0 6-2.692 6-6 0-2.761 2.238-5 5-5s5 2.239 5 5c0 3.309 2.691 6 6 6 2.762 0 5 2.239 5 5s-2.238 5-5 5c-3.309 0-6 2.691-6 6 0 2.761-2.238 5-5 5z" fill="#01eca5"/><path d="m384.25 487.741h-257.5c-5.523 0-10-4.477-10-10v-423.482c0-5.523 4.477-10 10-10h257.5c5.523 0 10 4.477 10 10v423.481c0 5.524-4.477 10.001-10 10.001z" fill="#6583fe" opacity=".2"/><path d="m384.25 467.741h-257.5c-5.523 0-10-4.477-10-10v-423.482c0-5.523 4.477-10 10-10h257.5c5.523 0 10 4.477 10 10v423.481c0 5.524-4.477 10.001-10 10.001z" fill="#9fb0fe"/><path d="m394.25 74.5h-173.63v-50.241h163.63c5.523 0 10 4.477 10 10z" fill="#4369fd"/><path d="m384.25 19.259h-257.5c-8.271 0-15 6.729-15 15v344.407c0 2.761 2.238 5 5 5s5-2.239 5-5v-344.407c0-2.757 2.243-5 5-5h88.87v45.241c0 2.761 2.238 5 5 5h139.88c2.762 0 5-2.239 5-5s-2.238-5-5-5h-134.88v-40.241h158.63c2.757 0 5 2.243 5 5v423.481c0 2.757-2.243 5-5 5h-257.5c-2.757 0-5-2.243-5-5v-45.074c0-2.761-2.238-5-5-5s-5 2.239-5 5v45.074c0 8.271 6.729 15 15 15h257.5c8.271 0 15-6.729 15-15v-423.481c0-8.271-6.729-15-15-15z" fill="#2626bc"/><g fill="#d2deff"><path d="m186.92 59.061h-34.882c-2.761 0-5-2.239-5-5s2.239-5 5-5h34.882c2.761 0 5 2.239 5 5s-2.239 5-5 5z"/><path d="m361.923 60.037c-1.279 0-2.56-.488-3.535-1.464l-5.657-5.657c-.938-.938-1.465-2.209-1.465-3.536s.527-2.598 1.465-3.536l5.657-5.657c1.951-1.952 5.118-1.953 7.071 0 1.952 1.953 1.952 5.118-.001 7.071l-2.121 2.121 2.121 2.122c1.953 1.953 1.953 5.119 0 7.071-.976.976-2.256 1.465-3.535 1.465z"/><path d="m342.626 60.037c-1.279 0-2.56-.488-3.535-1.464l-5.657-5.657c-.938-.938-1.465-2.209-1.465-3.536s.527-2.598 1.465-3.536l5.657-5.657c1.951-1.952 5.118-1.953 7.071 0 1.952 1.953 1.952 5.118-.001 7.071l-2.121 2.121 2.121 2.122c1.953 1.953 1.953 5.119 0 7.071-.975.976-2.256 1.465-3.535 1.465z"/><path d="m262.941 446.5h-14.882c-2.761 0-5-2.239-5-5s2.239-5 5-5h14.882c2.761 0 5 2.239 5 5s-2.239 5-5 5z"/><path d="m311.129 446.5h-14.882c-2.761 0-5-2.239-5-5s2.239-5 5-5h14.882c2.761 0 5 2.239 5 5s-2.238 5-5 5z"/><path d="m359.317 446.5h-14.882c-2.761 0-5-2.239-5-5s2.239-5 5-5h14.882c2.761 0 5 2.239 5 5s-2.238 5-5 5z"/></g><path d="m443 270.995c-1.279 0-2.56-.488-3.535-1.464-1.953-1.953-1.953-5.119 0-7.071l10-10c1.951-1.952 5.119-1.952 7.07 0 1.953 1.953 1.953 5.119 0 7.071l-10 10c-.975.976-2.256 1.464-3.535 1.464z" fill="#6583fe"/><path d="m369.5 159.797h-228c-2.761 0-5-2.239-5-5v-40.279c0-2.761 2.239-5 5-5h228c2.761 0 5 2.239 5 5v40.279c0 2.762-2.239 5-5 5z" fill="#6583fe"/><path d="m203.8 109.518h50.279v50.279h-50.279z" fill="#fff"/><ellipse cx="166.229" cy="134.658" fill="#d2deff" rx="15.046" ry="8.688"/><path d="m191.92 109.518h11.88v50.279h-11.88z" fill="#ff7eb8"/><path d="m357.626 139.331h-64.882c-2.761 0-5-2.239-5-5s2.239-5 5-5h64.882c2.761 0 5 2.239 5 5s-2.239 5-5 5z" fill="#d2deff"/><path d="m369.5 210.076h-228c-2.761 0-5-2.239-5-5v-40.279c0-2.761 2.239-5 5-5h228c2.761 0 5 2.239 5 5v40.279c0 2.762-2.239 5-5 5z" fill="#6583fe"/><path d="m203.8 159.797h50.279v50.279h-50.279z" fill="#fff"/><ellipse cx="166.229" cy="184.937" fill="#d2deff" rx="15.046" ry="8.688"/><path d="m191.92 159.797h11.88v50.279h-11.88z" fill="#02ffb3"/><path d="m357.626 189.61h-74.882c-2.761 0-5-2.239-5-5s2.239-5 5-5h74.882c2.761 0 5 2.239 5 5s-2.239 5-5 5z" fill="#d2deff"/><path d="m369.5 260.355h-228c-2.761 0-5-2.239-5-5v-40.279c0-2.761 2.239-5 5-5h228c2.761 0 5 2.239 5 5v40.279c0 2.762-2.239 5-5 5z" fill="#6583fe"/><path d="m203.8 210.076h50.279v50.279h-50.279z" fill="#fff"/><ellipse cx="166.229" cy="235.216" fill="#d2deff" rx="15.046" ry="8.688"/><path d="m191.92 210.076h11.88v50.279h-11.88z" fill="#b7c5ff"/><path d="m357.626 239.889h-44.882c-2.761 0-5-2.239-5-5s2.239-5 5-5h44.882c2.761 0 5 2.239 5 5s-2.239 5-5 5z" fill="#d2deff"/><path d="m369.5 310.634h-228c-2.761 0-5-2.239-5-5v-40.279c0-2.761 2.239-5 5-5h228c2.761 0 5 2.239 5 5v40.279c0 2.762-2.239 5-5 5z" fill="#6583fe"/><path d="m203.8 260.355h50.279v50.279h-50.279z" fill="#fff"/><ellipse cx="166.229" cy="285.495" fill="#d2deff" rx="15.046" ry="8.688"/><path d="m191.92 260.355h11.88v50.279h-11.88z" fill="#97ffd2"/><path d="m357.626 290.168h-74.882c-2.761 0-5-2.239-5-5s2.239-5 5-5h74.882c2.761 0 5 2.239 5 5s-2.239 5-5 5z" fill="#d2deff"/><path d="m369.5 360.913h-228c-2.761 0-5-2.239-5-5v-40.279c0-2.761 2.239-5 5-5h228c2.761 0 5 2.239 5 5v40.279c0 2.762-2.239 5-5 5z" fill="#6583fe"/><path d="m203.8 310.634h50.279v50.279h-50.279z" fill="#fff"/><ellipse cx="166.229" cy="335.774" fill="#d2deff" rx="15.046" ry="8.688"/><path d="m191.92 310.634h11.88v50.279h-11.88z" fill="#ff7eb8"/><path d="m357.626 340.447h-74.882c-2.761 0-5-2.239-5-5s2.239-5 5-5h74.882c2.761 0 5 2.239 5 5s-2.239 5-5 5z" fill="#d2deff"/></svg>