<svg id="Capa_1" enable-background="new 0 0 512 512" height="512" viewBox="0 0 512 512" width="512" xmlns="http://www.w3.org/2000/svg" xmlns:xlink="http://www.w3.org/1999/xlink"><linearGradient id="SVGID_1_" gradientUnits="userSpaceOnUse" x1="-21.409" x2="490.399" y1="373.272" y2="77.779"><stop offset="0" stop-color="#d2deff" stop-opacity="0"/><stop offset=".459" stop-color="#cee2fd" stop-opacity=".67"/><stop offset=".6852" stop-color="#c9e7fa"/></linearGradient><g><g><path d="m451.798 43.963c-160.556-97.869-410.51-8.611-439.594 61.949-38.908 94.394 26.578 110.528 38.743 187.874 9.761 62.061-51.182 121.495-16.394 176.282 37.883 59.663 163.465 44.681 211.198 16.447 87.376-51.683 43.309-112.012 84.684-187.299 39.407-71.707 116.244-42.625 160.961-99.99 42.5-54.521 14.31-122.402-39.598-155.263z" fill="url(#SVGID_1_)"/></g><g><circle cx="320.927" cy="307.893" fill="#73aacf" r="51.201"/><g><path d="m472.774 148.747-16.743-4.01c-1.003-4.518-4.049-8.398-8.353-10.406l-37.025-17.272c-3.445-1.607-7.435-1.659-10.884-.06-19.117 8.865-39.936 13.696-61.154 14.074l-291.344 5.197c-8.231.147-14.826 6.861-14.826 15.093v11.428c0 8.232 6.595 14.946 14.826 15.093l52.85.943c-.914 2.111-1.551 4.378-1.842 6.764l-8.353 68.618c-.79 6.493 1.517 12.98 6.229 17.515l43.931 42.283h.004v63.276h-3.733c-2.874 0-5.205 2.33-5.205 5.205v34.086c0 2.874 2.33 5.205 5.205 5.205h3.733v17.699c0 5.523 4.477 10 10 10h130.352c5.523 0 10-4.477 10-10v-17.699h4.143c2.874 0 5.205-2.33 5.205-5.205v-34.085c0-2.874-2.33-5.205-5.205-5.205h-4.143v-52.864l18.268-19.226c4.32-4.538 6.735-10.565 6.735-16.842v-105.685l23.169.413c21.217.378 42.037 5.209 61.154 14.074 3.449 1.599 7.438 1.547 10.884-.06l37.025-17.272c4.304-2.008 7.35-5.888 8.353-10.406l16.999-4.072c4.253-1.019 7.112-5.133 6.418-9.606-.534-3.46-3.267-6.176-6.673-6.991z" fill="#bae1f8"/><g><g><g><g><g><path d="m473.031 128.808-21.478-5.144v26.825l21.478-5.144c3.825-.916 6.522-4.335 6.522-8.268 0-3.933-2.697-7.353-6.522-8.269z" fill="#226191"/></g><g><path d="m338.617 163.08-291.344-5.197c-8.231-.147-14.826-6.861-14.826-15.093v-11.428c0-8.232 6.595-14.946 14.826-15.093l291.344-5.197c21.168-.378 41.94-5.187 61.021-14.013 3.498-1.618 7.524-1.631 11.017-.002l37.025 17.272c5.316 2.48 8.713 7.814 8.713 13.68v18.132c0 5.866-3.398 11.2-8.713 13.68l-37.025 17.272c-3.492 1.629-7.519 1.616-11.016-.002-19.082-8.824-39.854-13.634-61.022-14.011z" fill="#2a719b"/><path d="m351.784 110.252c-4.362.468-8.755.74-13.163.815l-65.256 1.162v17.299c0 4.168 3.379 7.548 7.548 7.548h63.324c4.168 0 7.548-3.379 7.548-7.548v-19.276z" fill="#73aacf"/><path d="m236.634 161.261-189.361-3.378c-8.231-.147-14.826-6.861-14.826-15.093v-11.428c0-8.232 6.595-14.946 14.826-15.093l189.361-3.378z" fill="#73aacf"/><path d="m65.807 158.214-18.534-.331c-8.231-.147-14.826-6.861-14.826-15.093v-11.428c0-8.232 6.595-14.946 14.826-15.093l18.534-.331z" fill="#226191"/></g></g><g><path d="m315.45 136.94v131.41c0 6.28-2.42 12.31-6.74 16.84l-18.27 19.23v125.06h-150.35v-292.54z" fill="#fff"/><g fill="#bae1f8"><path d="m315.45 256.98v11.37c0 6.28-2.42 12.31-6.74 16.84l-18.27 19.23v44.61c-12.57-9.33-20.71-24.28-20.71-41.14 0-26.42 20.02-48.18 45.72-50.91z"/><path d="m244.738 185.535c0 19.57-15.864 35.423-35.423 35.423h-69.222v-53.962h86.106c5.121 0 9.753 2.071 13.116 5.423 3.351 3.363 5.423 7.995 5.423 13.116z"/><path d="m315.448 136.945v55.69c-5.746 2.821-12.21 4.403-19.039 4.403-9.358 0-18.018-2.988-25.107-8.046-7.266 5.069-16.082 8.046-25.586 8.046-24.712 0-44.822-20.1-44.822-44.822v-15.27h114.554z"/></g><path d="m140.093 386.056h150.352v44.5h-150.352z" fill="#73aacf"/><g fill="#fff"><path d="m138.536 178.305c-14.929 0-27.031-12.102-27.031-27.031v-45.791c0-14.929 12.102-27.031 27.031-27.031 14.929 0 27.031 12.102 27.031 27.031v45.791c0 14.928-12.102 27.031-27.031 27.031z"/><path d="m192.599 178.305c-14.929 0-27.031-12.102-27.031-27.031v-45.791c0-14.929 12.102-27.031 27.031-27.031 14.929 0 27.031 12.102 27.031 27.031v45.791c0 14.928-12.103 27.031-27.031 27.031z"/><path d="m245.717 178.305c-14.408 0-26.087-11.68-26.087-26.087v-44.01c0-14.408 11.68-26.087 26.087-26.087 14.408 0 26.087 11.68 26.087 26.087v44.01c.001 14.407-11.679 26.087-26.087 26.087z"/><path d="m296.408 178.305c-13.588 0-24.603-11.015-24.603-24.603v-41.21c0-13.588 11.015-24.603 24.603-24.603 13.588 0 24.603 11.015 24.603 24.603v41.21c0 13.587-11.015 24.603-24.603 24.603z"/></g><path d="m236.255 282.824c0-88.016-75.835-84.756-75.835-84.756h48.891c19.566 0 35.428-15.862 35.428-35.428 0-10.241-8.302-18.544-18.544-18.544h-103.644c-12.36 0-22.776 9.225-24.27 21.495l-8.353 68.618c-.79 6.493 1.517 12.979 6.229 17.515l43.932 42.284z" fill="#fff"/></g></g><path d="m294.588 401.778h-158.228c-2.874 0-5.205-2.33-5.205-5.205v-34.085c0-2.874 2.33-5.205 5.205-5.205h158.227c2.874 0 5.205 2.33 5.205 5.205v34.085c0 2.875-2.33 5.205-5.204 5.205z" fill="#ff7eb8"/></g><path d="m415.556 312.615c-2.762 0-5-2.239-5-5 0-3.309-2.691-6-6-6-2.762 0-5-2.239-5-5s2.238-5 5-5c3.309 0 6-2.691 6-6 0-2.761 2.238-5 5-5s5 2.239 5 5c0 3.309 2.691 6 6 6 2.762 0 5 2.239 5 5s-2.238 5-5 5c-3.309 0-6 2.691-6 6 0 2.761-2.239 5-5 5z" fill="#ff7eb8"/><path d="m86.911 342.304c-2.761 0-5-2.239-5-5 0-3.309-2.691-6-6-6-2.761 0-5-2.239-5-5s2.239-5 5-5c3.309 0 6-2.691 6-6 0-2.761 2.239-5 5-5s5 2.239 5 5c0 3.309 2.691 6 6 6 2.761 0 5 2.239 5 5s-2.239 5-5 5c-3.309 0-6 2.691-6 6 0 2.761-2.239 5-5 5z" fill="#2a719b"/><path d="m371.553 243.471c-2.762 0-5-2.239-5-5 0-3.309-2.691-6-6-6-2.762 0-5-2.239-5-5s2.238-5 5-5c3.309 0 6-2.691 6-6 0-2.761 2.238-5 5-5s5 2.239 5 5c0 3.309 2.691 6 6 6 2.762 0 5 2.239 5 5s-2.238 5-5 5c-3.309 0-6 2.691-6 6 0 2.761-2.239 5-5 5z" fill="#ff7eb8"/><path d="m91.294 77.523c-1.28 0-2.559-.488-3.536-1.464-1.953-1.953-1.953-5.119 0-7.071l10-10c1.953-1.952 5.118-1.952 7.071 0 1.953 1.953 1.953 5.119 0 7.071l-10 10c-.976.976-2.255 1.464-3.535 1.464z" fill="#ff7eb8"/><path d="m337.553 393.591c-1.279 0-2.56-.488-3.535-1.464-1.953-1.953-1.953-5.119 0-7.071l10-10c1.951-1.952 5.119-1.952 7.07 0 1.953 1.953 1.953 5.119 0 7.071l-10 10c-.976.976-2.256 1.464-3.535 1.464z" fill="#2a719b"/></g></g><g><circle cx="320.927" cy="287.893" fill="#ff7eb8" r="51.201"/><circle cx="320.927" cy="287.893" fill="#fff" r="36.805"/><path d="m474.196 123.946-14.273-3.418c-1.875-4.648-5.447-8.544-10.131-10.728l-37.024-17.272c-.036-.017-.073-.027-.108-.043-.05-.022-.101-.041-.152-.061-4.762-2.132-10.198-2.107-14.97.099-18.649 8.627-38.504 13.187-59.011 13.552l-13.171.235c-2.852-13.365-14.746-23.421-28.949-23.421-9.318 0-17.638 4.331-23.068 11.082-5.174-9.997-15.609-16.85-27.622-16.85-10.317 0-19.47 5.056-25.128 12.815-5.478-9.822-15.969-16.482-27.991-16.482-11.355 0-21.342 5.944-27.031 14.879-5.69-8.935-15.676-14.879-27.031-14.879-17.662 0-32.031 14.369-32.031 32.031v4.729l-59.322 1.058c-10.883.194-19.736 9.208-19.736 20.092v11.428c0 10.884 8.854 19.897 19.736 20.092l46.32.826c-.07.423-.134.849-.186 1.278l-8.353 68.618c-.975 8.008 1.913 16.128 7.725 21.722l42.399 40.809v56.236c-5.028.629-8.933 4.921-8.933 10.117v34.085c0 5.196 3.905 9.488 8.933 10.117v22.791c0 2.761 2.239 5 5 5s5-2.239 5-5v-22.703h140.362v22.703c0 2.761 2.238 5 5 5s5-2.239 5-5v-22.746c5.224-.44 9.342-4.825 9.342-10.161v-34.085c0-5.336-4.118-9.721-9.342-10.161v-14.365c7.654 3.911 16.309 6.132 25.478 6.132 30.989 0 56.2-25.211 56.2-56.201s-25.211-56.201-56.2-56.201-56.201 25.211-56.201 56.201c0 17.546 8.087 33.234 20.724 43.549v20.841h-47.048v-22.216c0-2.761-2.239-5-5-5s-5 2.239-5 5v22.213h-83.313v-58.275c0-1.359-.553-2.66-1.533-3.603l-43.932-42.284c-3.561-3.427-5.33-8.402-4.733-13.309l8.353-68.619c1.187-9.748 9.487-17.099 19.307-17.099h103.644c7.468 0 13.544 6.076 13.544 13.544 0 16.778-13.65 30.428-30.428 30.428 0 0-48.893-.004-49.105.004-2.717.117-4.842 2.384-4.784 5.103.059 2.719 2.279 4.893 4.999 4.893h1.928c6.477.15 29.864 1.901 47.384 18.749 14.281 13.732 21.522 34.258 21.522 61.008 0 2.761 2.239 5 5 5s5-2.239 5-5c0-29.634-8.306-52.616-24.687-68.308-5.021-4.81-10.401-8.547-15.771-11.448h8.513c14.765 0 27.701-7.96 34.757-19.811.546.03 1.096.048 1.649.048 10.701 0 20.155-5.435 25.749-13.688 5.265 8.222 14.474 13.688 24.941 13.688 5.075 0 9.855-1.285 14.034-3.545v24.921c0 2.761 2.238 5 5 5s5-2.239 5-5v-32.488c0-.368-.045-.725-.121-1.07.775-1.06 1.485-2.17 2.115-3.33l16.09.287c20.508.366 40.362 4.925 59.011 13.552 2.427 1.123 5.026 1.684 7.622 1.684 2.508 0 5.008-.537 7.347-1.584.051-.021.102-.039.153-.061.036-.016.073-.027.108-.043l37.024-17.272c4.684-2.185 8.255-6.081 10.13-10.728l14.273-3.418c6.098-1.46 10.356-6.86 10.356-13.131s-4.255-11.672-10.353-13.132zm-199.469 163.948c0-25.475 20.726-46.201 46.201-46.201s46.2 20.726 46.2 46.201-20.726 46.201-46.2 46.201c-25.476-.001-46.201-20.726-46.201-46.201zm20.065 74.594v34.085c0 .113-.092.205-.204.205h-158.228c-.113 0-.205-.092-.205-.205v-34.085c0-.113.092-.205.205-.205h158.228c.112 0 .204.092.204.205zm43.913-246.416c2.704-.048 5.397-.166 8.079-.35v13.807c0 1.405-1.143 2.547-2.548 2.547h-18.226v-15.778zm-146.106-32.62c12.148 0 22.031 9.883 22.031 22.031v2.724 30.889h-44.063v-33.613c0-12.148 9.884-22.031 22.032-22.031zm-95.516 70.319-49.72-.887c-5.467-.098-9.915-4.626-9.915-10.094v-11.428c0-5.468 4.448-9.996 9.915-10.094l59.143-1.055v23.654c-3.852 2.51-7.093 5.898-9.423 9.904zm19.422-14.042v-34.246c0-12.148 9.883-22.031 22.031-22.031s22.031 9.883 22.031 22.031v33.613h-38.017c-2.067 0-4.088.222-6.045.633zm131.848 33.393c.899-3.345 1.386-6.857 1.386-10.482 0-12.982-10.562-23.544-23.544-23.544h-1.565v-30.889c0-11.627 9.46-21.087 21.087-21.087s21.087 9.46 21.087 21.087v4.285 39.726c.001 10.732-8.066 19.6-18.451 20.904zm48.055.183c-10.81 0-19.604-8.794-19.604-19.604v-1.484-39.726c0-10.81 8.794-19.604 19.604-19.604 10.809 0 19.603 8.794 19.603 19.604v41.21c0 10.81-8.794 19.604-19.603 19.604zm105.329-.75c-19.919-9.213-41.126-14.083-63.032-14.474l-12.991-.232c.191-1.356.297-2.74.297-4.148v-11.625h18.226c6.919 0 12.548-5.629 12.548-12.547v-14.83c15.507-2.072 30.567-6.447 44.953-13.102 1.245-.577 2.591-.813 3.917-.731v72.418c-1.327.083-2.672-.153-3.918-.729zm13.917-3.31v-64.337l29.911 13.954c.832.388 1.587.891 2.268 1.473-.814.91-1.28 2.09-1.28 3.33v26.825c0 1.24.466 2.42 1.28 3.329-.68.581-1.436 1.085-2.268 1.473zm56.213-28.763-10.476 2.509v-11.829l10.475 2.509c1.582.379 2.687 1.779 2.687 3.406s-1.105 3.027-2.686 3.405z" fill="#014073"/><g fill="#ff7eb8"><path d="m336.851 267.862h-5.444c-2.761 0-5 2.238-5 5s2.239 5 5 5h.444v25.063c0 2.762 2.239 5 5 5s5-2.238 5-5v-30.063c0-2.761-2.239-5-5-5z"/><path d="m316.769 274.495h-1.632v-1.633c0-2.762-2.239-5-5-5s-5 2.238-5 5v1.633h-1.633c-2.761 0-5 2.238-5 5s2.239 5 5 5h1.633v1.632c0 2.762 2.239 5 5 5s5-2.238 5-5v-1.632h1.632c2.761 0 5-2.238 5-5s-2.239-5-5-5z"/></g></g></g></g></svg>